<svg width="939" height="944" viewBox="149 217 621 621" fill="none" xmlns="http://www.w3.org/2000/svg">
<g clip-path="url(#clip0_0_1)">
<g clip-path="url(#clip1_0_1)">
<path d="M554.821 733.826C682.382 680.989 742.958 534.747 690.12 407.186C637.283 279.624 491.041 219.049 363.48 271.887C235.918 324.724 175.343 470.966 228.181 598.527C281.018 726.088 427.26 786.664 554.821 733.826Z" stroke="black" stroke-width="2" stroke-dasharray="6 6"/>
<path d="M531.095 676.546C627.021 636.812 672.574 526.838 632.84 430.912C593.106 334.986 483.132 289.433 387.206 329.167C291.28 368.901 245.727 478.875 285.461 574.801C325.195 670.727 435.169 716.28 531.095 676.546Z" stroke="black" stroke-width="2" stroke-dasharray="4 4"/>
<mask id="mask0_0_1" style="mask-type:luminance" maskUnits="userSpaceOnUse" x="-10" y="56" width="939" height="944">
<path d="M651.084 56.216L-9.49033 329.835L267.955 999.647L928.529 726.029L651.084 56.216Z" fill="white"/>
</mask>
<g mask="url(#mask0_0_1)">
<path d="M548.737 439.201C567.173 430.212 586.759 421.238 607.747 413.891L607.744 413.888L609.024 413.445L609.044 413.438L609.719 413.204L609.72 413.207C629.157 406.528 649.802 401.272 671.86 398.713L671.854 398.703L673.396 398.533C699.7 395.641 727.997 396.594 758.65 403.522L760 403.827L759.278 405.007C743.356 431.021 724.055 451.716 703.009 468.517L703.01 468.52L702.661 468.795C702.612 468.835 702.563 468.876 702.515 468.914L701.306 469.874L701.303 469.867C684.075 483.393 665.717 494.354 647.103 503.513L647.104 503.516L646.463 503.829C646.456 503.833 646.448 503.836 646.441 503.839L645.226 504.435L645.224 504.431C625.262 514.117 605.038 521.77 585.641 528.33L585.641 528.621L584.78 528.621L583.657 529L583.656 528.621L461.393 528.621L459 528.621L460.691 526.929L547.148 440.417L546.853 440.122L548.006 439.556L548.55 439.014L548.737 439.201Z" fill="url(#paint0_linear_0_1)" stroke="black"/>
<path d="M273.3 552.404C293.326 542.739 313.508 535.218 332.89 528.522L332.891 528.251L333.669 528.251L333.676 528.249L333.827 528.245L333.849 528.245L334.869 528.216L334.868 528.251L457.118 528.25L459.51 528.25L457.819 529.945L371.376 616.586L371.397 616.605L370.931 617.031L370.677 617.287L369.976 617.99L369.767 617.782C351.415 626.884 331.707 635.798 310.741 643.092L310.744 643.096L309.529 643.513C309.499 643.524 309.468 643.535 309.437 643.545L308.762 643.777L308.76 643.774C289.135 650.475 268.415 655.723 246.684 658.355L246.69 658.364L245.156 658.54C245.022 658.555 244.888 658.569 244.754 658.584L244.522 658.611L244.52 658.61C217.764 661.624 189.494 660.649 159.854 653.512L158.51 653.188L159.247 652.017C176.029 625.379 195.374 604.646 216.027 588.05C233.794 573.772 252.524 562.57 271.418 553.319L271.417 553.316L272.06 553.002C272.085 552.991 272.111 552.98 272.137 552.967L273.299 552.4L273.3 552.404Z" fill="url(#paint1_linear_0_1)" stroke="black"/>
<path d="M335.711 226.956C362.345 243.795 383.084 263.197 399.675 283.914L400.647 285.13L400.636 285.133C414.459 302.597 425.373 320.969 434.412 339.5L434.416 339.5L434.73 340.146C434.817 340.325 434.903 340.506 434.989 340.685L435.327 341.38L435.324 341.38C444.99 361.47 452.51 381.718 459.21 401.168L459.497 401.168L459.497 402L459.51 402.034L459.497 402.116L459.498 402.163L459.497 525.816L459.497 528.216L457.802 526.519L371.153 439.789L371.1 439.842L370.43 439.064L369.747 438.38L369.946 438.181C360.841 419.762 351.923 399.985 344.632 378.953L344.629 378.956L344.181 377.649C344.116 377.462 344.053 377.274 343.99 377.086L343.953 376.98L343.953 376.979C337.248 357.284 331.998 336.488 329.366 314.678L329.363 314.68L329.221 313.443C329.209 313.343 329.196 313.244 329.185 313.143L329.11 312.509L329.115 312.506C326.1 285.662 327.079 257.301 334.216 227.565L334.54 226.216L335.711 226.956Z" fill="url(#paint2_linear_0_1)" stroke="black"/>
<path d="M461.223 529.907L548.685 617.054L548.79 617.146L548.802 617.172L549.39 617.757L549.187 617.958C558.203 636.395 567.202 655.979 574.568 676.966L574.577 676.96L575.027 678.259C581.834 697.89 587.2 718.757 589.796 741.07L589.804 741.065L589.975 742.608C589.989 742.743 590.003 742.877 590.016 743.011L590.041 743.237L590.04 743.238C592.856 769.365 591.864 797.459 584.97 827.866L584.664 829.216L583.481 828.493C557.389 812.567 536.633 793.267 519.782 772.218L519.781 772.218L519.522 771.894C519.477 771.836 519.429 771.778 519.383 771.721L518.42 770.511L518.426 770.51C504.864 753.28 493.876 734.925 484.691 716.312L484.685 716.313L484.372 715.672C484.232 715.389 484.095 715.105 483.957 714.823L483.766 714.435L483.768 714.434C474.057 694.472 466.382 674.244 459.802 654.847L459.525 654.848L459.524 654.031L459.51 653.988L459.526 653.789L459.526 530.607L459.525 528.216L461.223 529.907Z" fill="url(#paint3_linear_0_1)" stroke="black"/>
<path d="M459.456 530.607L459.455 652.864L459.51 652.865L459.455 653.599L459.456 653.856L459.456 654.847L459.154 654.847C452.442 674.644 444.59 695.305 434.595 715.668C425.14 734.933 413.756 753.94 399.599 771.716C382.684 792.958 361.814 812.439 335.524 828.493L334.341 829.216L334.036 827.866C327.088 797.21 326.15 768.914 329.055 742.607C331.552 719.968 336.901 698.815 343.756 678.927L343.754 678.926L343.988 678.251L344.113 677.893L344.44 676.951L344.441 676.952C351.809 655.968 360.8 636.379 369.81 617.942L369.626 617.757L370.16 617.225L370.187 617.172L370.311 617.051L370.326 617.036L371.029 616.354L371.031 616.356L457.76 529.907L459.457 528.216L459.456 530.607Z" fill="url(#paint4_linear_0_1)" stroke="black"/>
<path d="M461.392 528.405L583.646 528.405L583.647 528L584.825 528.405L585.632 528.405L585.631 528.683C605.414 535.501 626.027 543.181 646.459 553.105C665.569 562.393 684.521 573.668 702.491 588.07C723.138 604.615 742.482 625.27 759.262 651.822L760 652.99L758.655 653.313C729.017 660.428 700.752 661.406 674.004 658.399L674.002 658.403L673.37 658.33C673.323 658.325 673.277 658.319 673.232 658.314L671.838 658.154L671.84 658.148C649.854 655.492 628.904 650.172 609.076 643.379C587.62 636.029 567.475 626.957 548.74 617.692L548.54 617.892L547.951 617.303L546.867 616.765L547.139 616.493L460.691 530.095L459 528.405L461.392 528.405Z" fill="url(#paint5_linear_0_1)" stroke="black"/>
<path d="M584.807 227.565C591.94 257.3 592.918 285.658 589.905 312.494L589.906 312.495L589.882 312.696C589.866 312.84 589.853 312.984 589.836 313.128L589.659 314.667L589.651 314.662C586.988 336.721 581.657 357.742 574.849 377.633L574.402 378.94L574.397 378.935C567.107 399.971 558.194 419.747 549.095 438.163L549.311 438.378L548.675 439.014L548.163 440.047L547.902 439.787L461.288 526.519L459.593 528.216L459.593 525.816L459.596 403.158L459.513 403.158L459.575 402.313L459.51 402.156L459.595 401.903L459.597 401.169L459.85 401.169C466.55 381.719 474.078 361.47 483.738 341.377L483.736 341.377L484.091 340.643C484.172 340.475 484.254 340.307 484.335 340.139L484.649 339.494L484.652 339.494C493.903 320.536 505.112 301.743 519.391 283.916C535.983 263.199 556.687 243.791 583.312 226.957L584.484 226.216L584.807 227.565Z" fill="url(#paint6_linear_0_1)" stroke="black"/>
<path d="M159.859 402.748C190.512 395.796 218.808 394.854 245.114 397.762C267.749 400.26 288.901 405.612 308.785 412.468L308.789 412.464L309.464 412.698C309.783 412.809 310.102 412.921 310.42 413.033L310.764 413.152L310.763 413.152C331.983 420.606 351.774 429.721 370.391 438.836L370.573 438.926L370.69 439.062L457.818 526.516L459.51 528.214L457.118 528.214L333.873 528.216L332.883 528.216L332.882 527.929C313.486 521.351 293.263 513.677 273.297 503.958L273.296 503.968L272.059 503.36C252.794 493.899 233.786 482.506 216.011 468.345C194.767 451.421 175.287 430.539 159.233 404.236L158.51 403.053L159.859 402.748Z" fill="url(#paint7_linear_0_1)" stroke="black"/>
</g>
</g>
</g>
<defs>
<linearGradient id="paint0_linear_0_1" x1="765.036" y1="402.305" x2="461.967" y2="527.752" gradientUnits="userSpaceOnUse">
<stop stop-color="#C5E2C5"/>
<stop offset="1" stop-color="#008000"/>
</linearGradient>
<linearGradient id="paint1_linear_0_1" x1="160.09" y1="652.558" x2="457.316" y2="529.723" gradientUnits="userSpaceOnUse">
<stop stop-color="#FFC5C5"/>
<stop offset="1" stop-color="#D40000"/>
</linearGradient>
<linearGradient id="paint2_linear_0_1" x1="335.167" y1="227.803" x2="458.697" y2="525.736" gradientUnits="userSpaceOnUse">
<stop stop-color="#FEFFDD"/>
<stop offset="1" stop-color="#FFFF54"/>
</linearGradient>
<linearGradient id="paint3_linear_0_1" x1="460.505" y1="530.613" x2="583.231" y2="827.965" gradientUnits="userSpaceOnUse">
<stop stop-color="#0000C8"/>
<stop offset="1" stop-color="#C5C5FF"/>
</linearGradient>
<linearGradient id="paint4_linear_0_1" x1="458.72" y1="529.964" x2="335.671" y2="827.991" gradientUnits="userSpaceOnUse">
<stop stop-color="#DE00DE"/>
<stop offset="1" stop-color="#FFE2FF"/>
</linearGradient>
<linearGradient id="paint5_linear_0_1" x1="758.474" y1="652.386" x2="461.701" y2="528.626" gradientUnits="userSpaceOnUse">
<stop stop-color="#D5EEFF"/>
<stop offset="1" stop-color="#0089E0"/>
</linearGradient>
<linearGradient id="paint6_linear_0_1" x1="584.349" y1="229.021" x2="459.798" y2="524.474" gradientUnits="userSpaceOnUse">
<stop stop-color="#C5FFC5"/>
<stop offset="1" stop-color="#00B400"/>
</linearGradient>
<linearGradient id="paint7_linear_0_1" x1="158.871" y1="402.199" x2="459.414" y2="527.697" gradientUnits="userSpaceOnUse">
<stop stop-color="#FFE1C5"/>
<stop offset="1" stop-color="#FF7D00"/>
</linearGradient>
<clipPath id="clip0_0_1">
<rect width="939" height="944" fill="white"/>
</clipPath>
<clipPath id="clip1_0_1">
<rect width="715" height="725" fill="white" transform="translate(-30 305.619) rotate(-22.5)"/>
</clipPath>
</defs>
</svg>
